<?xml version="1.0" standalone="no"?><!DOCTYPE svg PUBLIC "-//W3C//DTD SVG 1.1//EN" "http://www.w3.org/Graphics/SVG/1.1/DTD/svg11.dtd"><svg t="1781582872207" class="icon" viewBox="0 0 1024 1024" version="1.1" xmlns="http://www.w3.org/2000/svg" p-id="1429" xmlns:xlink="http://www.w3.org/1999/xlink" width="256" height="256"><path d="M513.792 180.7872m-108.9536 0a108.9536 108.9536 0 1 0 217.9072 0 108.9536 108.9536 0 1 0-217.9072 0Z" fill="#FDCB50" p-id="1430"></path><path d="M519.2704 72.0896a101.888 101.888 0 0 0-0.8192 12.544 108.9024 108.9024 0 0 0 103.5264 108.6976 112.2816 112.2816 0 0 0 0.768-12.544 108.8512 108.8512 0 0 0-103.4752-108.6976zM405.4528 168.96a109.9776 109.9776 0 0 0-0.6144 11.6736 108.9024 108.9024 0 0 0 105.6768 108.9536A108.9536 108.9536 0 0 0 405.4528 168.96z" fill="#FFFFFF" p-id="1431"></path><path d="M513.792 305.1008a124.3136 124.3136 0 1 1 124.3136-124.3136 124.416 124.416 0 0 1-124.3136 124.3136z m0-217.9072a93.5936 93.5936 0 1 0 93.5936 93.5936A93.696 93.696 0 0 0 513.792 87.04z" fill="#042A76" p-id="1432"></path><path d="M209.5616 913.3568L884.224 305.0496a97.5872 97.5872 0 1 0-142.2336-131.9936L164.8128 853.248z" fill="#6864F8" p-id="1433"></path><path d="M817.5104 133.8368a97.28 97.28 0 0 0-75.52 39.2192l-390.6048 460.288a436.3264 436.3264 0 0 0 89.8048 71.168l443.0336-399.36a97.5872 97.5872 0 0 0-66.56-171.2128z" fill="#BC9BF4" p-id="1434"></path><path d="M366.5408 771.84l457.4208-412.416c-7.6288-0.4096-15.36-0.6144-22.9888-0.6144a435.2 435.2 0 0 0-434.432 413.0304z" fill="#28A2CC" p-id="1435"></path><path d="M385.4848 664.9344a431.5648 431.5648 0 0 0 55.7056 39.5776l382.7712-345.088c-7.6288-0.4096-15.36-0.6144-22.9888-0.6144a435.2 435.2 0 0 0-415.488 306.1248z" fill="#68CCD2" p-id="1436"></path><path d="M209.5616 928.7168h-1.4848a15.36 15.36 0 0 1-10.8032-6.0928l-44.8-60.1088a15.36 15.36 0 0 1 0.6144-19.0976l576.8704-679.936a112.9472 112.9472 0 1 1 164.352 153.1904L219.8528 924.7744a15.36 15.36 0 0 1-10.2912 3.9424zM184.32 853.8624l27.4944 37.0176L873.9328 293.632a82.2272 82.2272 0 1 0-119.6544-111.36l-0.5632 0.768z" fill="#042A76" p-id="1437"></path><path d="M271.510831 927.513106m-16.690171 17.618537l0 0q-16.690171 17.618537-34.308708 0.928366l-95.303648-90.281852q-17.618537-16.690171-0.928367-34.308708l0 0q16.690171-17.618537 34.308708-0.928366l95.303649 90.281852q17.618537 16.690171 0.928366 34.308708Z" fill="#FD8F00" p-id="1438"></path><path d="M237.2096 968.0896A39.424 39.424 0 0 1 209.92 957.44l-95.232-90.4704a39.5776 39.5776 0 0 1-1.536-56.0128 39.5776 39.5776 0 0 1 56.0128-1.536l95.3344 90.2656a39.68 39.68 0 0 1-26.2144 68.4032zM141.9264 829.44a8.704 8.704 0 0 0-6.1952 2.7648 8.9088 8.9088 0 0 0 0.3072 12.5952l95.0784 90.112a8.8576 8.8576 0 0 0 15.0016-6.7072 8.704 8.704 0 0 0-2.7648-6.1952l-95.3344-90.2656a8.704 8.704 0 0 0-6.0928-2.304z m-17.6128-7.7824z" fill="#042A76" p-id="1439"></path><path d="M879.3088 861.8496L289.4848 170.9568A97.5872 97.5872 0 1 0 153.6 309.5552l664.4224 595.4048z" fill="#DC4B86" p-id="1440"></path><path d="M289.4848 170.9568a96.9216 96.9216 0 0 0-21.9648-19.6608 433.3056 433.3056 0 0 0-35.84 227.9936l431.104 386.4064h1.1264a434.2272 434.2272 0 0 0 119.2448-16.6912z" fill="#FE7DA0" p-id="1441"></path><path d="M321.9968 209.0496c-1.3824 14.3872-2.1504 28.928-2.1504 43.6736a435.2 435.2 0 0 0 410.1632 434.2272z" fill="#FDCB50" p-id="1442"></path><path d="M818.0224 920.32a15.36 15.36 0 0 1-10.24-3.9424L143.8208 321.3312a112.9472 112.9472 0 1 1 157.5424-160.1536L890.88 851.8656a15.36 15.36 0 0 1-2.8672 22.528l-61.44 43.1104a15.36 15.36 0 0 1-8.5504 2.816zM214.1184 150.7328a82.2272 82.2272 0 0 0-50.8928 146.7904l0.7168 0.6144L819.2 885.3504l37.5296-26.368L277.8112 180.9408a82.2272 82.2272 0 0 0-63.6928-30.208z" fill="#042A76" p-id="1443"></path><path d="M895.183479 800.258292m17.160633 17.160633l0 0q17.160633 17.160633 0 34.321266l-92.826716 92.826716q-17.160633 17.160633-34.321266 0l0 0q-17.160633-17.160633 0-34.321266l92.826715-92.826716q17.160633-17.160633 34.321267 0Z" fill="#FDCB50" p-id="1444"></path><path d="M802.304 967.0144a39.5776 39.5776 0 0 1-28.0064-67.584l92.8256-92.8256a39.6288 39.6288 0 1 1 56.064 56.0128l-92.8256 92.8256a39.5776 39.5776 0 0 1-28.0576 11.5712z m92.8256-141.312a8.9088 8.9088 0 0 0-6.2976 2.6112l-92.8256 92.8256a9.0112 9.0112 0 0 0 0 12.5952 8.9088 8.9088 0 0 0 12.5952 0l92.8256-92.8256a8.9088 8.9088 0 0 0-6.2976-15.36z" fill="#042A76" p-id="1445"></path></svg>